<?xml version="1.0" standalone="no"?><!DOCTYPE svg PUBLIC "-//W3C//DTD SVG 1.1//EN" "http://www.w3.org/Graphics/SVG/1.1/DTD/svg11.dtd"><svg t="1540045401443" class="icon" style="" viewBox="0 0 1024 1024" version="1.1" xmlns="http://www.w3.org/2000/svg" p-id="5754" xmlns:xlink="http://www.w3.org/1999/xlink" width="200" height="200"><defs><style type="text/css"></style></defs><path d="M710.5 669.2m-240.4 0a240.4 240.4 0 1 0 480.8 0 240.4 240.4 0 1 0-480.8 0Z" fill="#FFCE00" p-id="5755"></path><path d="M509.9 794.4c-24.2 0-47.7-6-69.6-18-41.4-22.7-73.1-65.1-86.8-116.4-5.5-20.7 6.7-42 27.5-47.5 20.5-5.4 42 6.8 47.5 27.5 8.1 30.4 26.5 56 49.1 68.4 17.1 9.4 36.1 10.9 56.2 4.5 45.2-14.4 53.3-52.5 54.7-68.3 2.8-31.8-11.4-72.7-49.4-92.5-11.8-6.1-24-11.5-36.2-16.9-25.1-11.1-51-22.5-75.2-40.2-55.3-40.4-79.5-105.4-61.8-165.6 16.9-57.5 67.8-95.6 132.9-99.4 134.4-8.1 170.2 97.5 172.9 138.8 1.4 21.4-14.8 39.9-36.1 41.3-21.1 1.8-39.7-14.6-41.3-35.8-1.5-16.9-13.3-71.1-91-66.8-32.4 1.9-55.3 17.9-63 43.9-8.4 28.4 4.6 60.2 33.1 81.1 17.4 12.7 38.5 22 60.8 31.9 13.7 6.1 27.4 12.1 40.7 19.1 60.3 31.4 96.8 98.9 90.8 168-5.6 65.1-46.2 115.8-108.5 135.5-15.8 4.9-31.7 7.4-47.3 7.4z" fill="" p-id="5756"></path><path d="M512 848.3c-21.4 0-38.8-17.4-38.8-38.8v-595c0-21.4 17.4-38.8 38.8-38.8s38.8 17.4 38.8 38.8v595.1c0 21.4-17.4 38.7-38.8 38.7z" fill="" p-id="5757"></path><path d="M512 1024C229.7 1024 0 794.3 0 512S229.7 0 512 0s512 229.7 512 512-229.7 512-512 512z m0-946.4C272.5 77.6 77.6 272.5 77.6 512S272.5 946.4 512 946.4 946.4 751.5 946.4 512 751.5 77.6 512 77.6z" fill="" p-id="5758"></path></svg>