<?xml version="1.0" standalone="no"?><!DOCTYPE svg PUBLIC "-//W3C//DTD SVG 1.1//EN" "http://www.w3.org/Graphics/SVG/1.1/DTD/svg11.dtd"><svg t="1540004027904" class="icon" style="" viewBox="0 0 1024 1024" version="1.1" xmlns="http://www.w3.org/2000/svg" p-id="899" xmlns:xlink="http://www.w3.org/1999/xlink" width="200" height="200"><defs><style type="text/css"></style></defs><path d="M765.173285 479.261837a0.799214 0.799214 0 0 0-0.177603-0.296005 106.117824 106.117824 0 0 0-20.720357-23.206799l-16.90189-14.326646-331.525698-280.405619c-24.627623-20.720356-57.247384-31.080534-89.719142-30.754929l-213.774874 180.91831-16.901891 14.415447a106.117824 106.117824 0 0 0-20.720356 23.206799 0.799214 0.799214 0 0 0-0.177603 0.296005 114.761172 114.761172 0 0 0-15.244262 44.400763A118.402035 118.402035 0 0 0 38.391993 408.487021v505.103081c0 60.740244 46.087992 110.409898 102.38816 110.409898H781.364763V538.729259a118.402035 118.402035 0 0 0-0.947216-14.948257 114.761172 114.761172 0 0 0-15.244262-44.519165z" fill="#EE7C3D" p-id="900"></path><path d="M984.661057 393.449962a114.761172 114.761172 0 0 0-15.244262-44.400763 0.799214 0.799214 0 0 0-0.177603-0.296005 106.117824 106.117824 0 0 0-20.720356-23.206799l-16.901891-14.297045-331.525698-280.43522C575.937232 10.271377 543.968683 0 512.000133 0s-63.937099 10.271377-88.179915 30.784529l-331.525698 280.43522-16.84269 14.385847a106.117824 106.117824 0 0 0-20.720356 23.206799 0.799214 0.799214 0 0 0-0.177603 0.296005 114.761172 114.761172 0 0 0-15.244262 44.400763A118.402035 118.402035 0 0 0 38.391993 408.487021v505.103081c0 60.740244 46.087992 110.409898 102.38816 110.409898h742.439961c56.240967 0 102.38816-49.669654 102.388159-110.409898V408.487021a118.402035 118.402035 0 0 0-0.947216-15.037059zM429.118709 929.278372V608.02405h168.7229v321.254322z m461.767936-15.68827c0 10.44898-6.304908 15.421865-7.666531 15.68827H692.563237V602.103949a89.067931 89.067931 0 0 0-88.801527-88.801527h-180.563103a89.067931 89.067931 0 0 0-88.801526 88.801527v327.174423H140.780153c-1.361623-0.266405-7.666532-5.23929-7.666532-15.68827V408.487021a21.401168 21.401168 0 0 1 0.207204-2.960051 20.720356 20.720356 0 0 1 1.657628-5.920102 19.299532 19.299532 0 0 1 1.539227-1.480025h0.148002l16.87229-14.297046 331.525698-280.405619a47.745621 47.745621 0 0 1 54.020929 0l331.525698 280.405619 16.87229 14.297046h0.148002a19.299532 19.299532 0 0 1 1.539227 1.480025 21.075562 21.075562 0 0 1 1.657628 5.920102 23.680407 23.680407 0 0 1 0.059201 2.960051z" fill="#333333" p-id="901"></path></svg>