<?xml version="1.0" standalone="no"?><!DOCTYPE svg PUBLIC "-//W3C//DTD SVG 1.1//EN" "http://www.w3.org/Graphics/SVG/1.1/DTD/svg11.dtd"><svg t="1540043002088" class="icon" style="" viewBox="0 0 1024 1024" version="1.1" xmlns="http://www.w3.org/2000/svg" p-id="772" xmlns:xlink="http://www.w3.org/1999/xlink" width="200" height="200"><defs><style type="text/css"></style></defs><path d="M575.654054 249.081081H116.237838v691.891892a83.276108 83.276108 0 0 0 83.027027 83.027027h459.416216V332.108108a83.276108 83.276108 0 0 0-83.027027-83.027027z" fill="#EE7C3D" p-id="773"></path><path d="M819.2 88.562162v846.875676H204.8V88.562162h614.4m5.535135-88.562162H199.264865A83.276108 83.276108 0 0 0 116.237838 83.027027v857.945946a83.276108 83.276108 0 0 0 83.027027 83.027027h625.47027a83.276108 83.276108 0 0 0 83.027027-83.027027V83.027027a83.276108 83.276108 0 0 0-83.027027-83.027027z" fill="#333333" p-id="774"></path><path d="M686.356757 293.362162H337.643243a44.281081 44.281081 0 0 1 0-88.562162h348.713514a44.281081 44.281081 0 0 1 0 88.562162zM686.356757 509.232432H337.643243a44.281081 44.281081 0 0 1 0-88.562162h348.713514a44.281081 44.281081 0 0 1 0 88.562162zM465.200432 892.651243a44.281081 44.281081 0 0 1-31.301189-12.952216L335.429189 781.228973a44.281081 44.281081 0 1 1 62.602379-62.630054l67.168864 67.168865 181.026595-181.05427a44.281081 44.281081 0 0 1 62.630054 62.630054l-212.327784 212.355459a44.281081 44.281081 0 0 1-31.328865 12.952216z" fill="#333333" p-id="775"></path></svg>